PathFileType	4	(X/Y/Z)	./resultDataOpenSim/trcMotMarkerGrf/sub09/qtm-03-06.trc
DataRate	CameraRate	NumFrames	NumMarkers	Units	OrigDataRate	OrigDataStartFrame	OrigNumFrames
250.000000	250.000000	12	24	m	250.000000	308	492
Frame#	Time	L.Toe.Tip			R.Toe.Tip			L.Ankle.Lat			R.Ankle.Lat			L.Ankle.Med			R.Ankle.Med			L.Heel			R.Heel			L.Knee.Lat			R.Knee.Lat			L.Knee.Med			R.Knee.Med			L.Thigh.Upper			R.Thigh.Upper			L.ASIS			R.ASIS			V.Sacral			L.Acromium			R.Acromium			C7			L.Elbow			R.Elbow			L.Wrist.Lat			R.Wrist.Lat
		X1	Y1	Z1	X2	Y2	Z2	X3	Y3	Z3	X4	Y4	Z4	X5	Y5	Z5	X6	Y6	Z6	X7	Y7	Z7	X8	Y8	Z8	X9	Y9	Z9	X10	Y10	Z10	X11	Y11	Z11	X12	Y12	Z12	X13	Y13	Z13	X14	Y14	Z14	X15	Y15	Z15	X16	Y16	Z16	X17	Y17	Z17	X18	Y18	Z18	X19	Y19	Z19	X20	Y20	Z20	X21	Y21	Z21	X22	Y22	Z22	X23	Y23	Z23	X24	Y24	Z24

308	1.228	0.10371825	-0.010194857	0.11801102	0.96677542	0.065792254	0.13867407	0.022847543	0.11513752	0.044406467	0.82085614	0.054002305	0.17649637	0.056444633	0.12243478	0.13629271	0.82019404	0.097539052	0.0861479	-0.046681049	0.13700643	0.08770614	0.7555399	0.025610818	0.12803105	0.28641814	0.44163858	-0.0094167269	0.73532899	0.50525389	0.24313088	0.30160175	0.4329042	0.11765409	0.71470093	0.48517016	0.12029553	0.43810518	0.82463803	-0.044403442	0.52047321	0.83745116	0.31825766	0.5540589	0.89495943	-0.010211836	0.58348946	0.91767172	0.22960941	0.40356273	0.96861957	0.13696219	0.58559332	1.3557636	-0.051384747	0.56366702	1.3717958	0.27885808	0.50669139	1.4150984	0.10977113	0.48353575	0.98527443	-0.10183233	0.40045913	1.0511531	0.36532477	0.73631312	0.88161542	-0.079264156	0.51073375	0.80002145	0.39742793
309	1.232	0.10472861	-0.0095927029	0.11752327	0.96807969	0.061821399	0.13761713	0.027328988	0.11773849	0.042675993	0.82169219	0.053502535	0.17682133	0.061286854	0.12453904	0.13436038	0.82165788	0.097183107	0.086484701	-0.041364793	0.14129472	0.086135307	0.75583269	0.026307337	0.12843797	0.29560534	0.4407331	-0.010503902	0.74409496	0.50723522	0.24267683	0.31075125	0.43158313	0.11655315	0.72241005	0.48729707	0.12023509	0.44621147	0.82395656	-0.044557721	0.52765685	0.83881421	0.31836605	0.56182663	0.89456032	-0.0096927407	0.59071841	0.91848969	0.22985244	0.41213048	0.96869225	0.13544601	0.59226808	1.355998	-0.051447628	0.57074332	1.3717272	0.27899276	0.51354762	1.4150632	0.11006383	0.48943231	0.98568886	-0.10149605	0.4081738	1.0507706	0.36526668	0.74101709	0.87951058	-0.079613195	0.51878202	0.79965881	0.39713746
310	1.236	0.10593975	-0.0088227257	0.11700808	0.96937034	0.05801099	0.13636232	0.032035969	0.12050551	0.041090804	0.82260893	0.053019773	0.17700779	0.066473378	0.12679869	0.13249846	0.82299155	0.096771204	0.086705046	-0.035757815	0.14573712	0.084741678	0.75614828	0.027050629	0.12876923	0.30527523	0.43971601	-0.01169198	0.75259533	0.50859268	0.24224995	0.32025289	0.43017056	0.11538398	0.7300624	0.48931538	0.12004024	0.4543256	0.82331773	-0.044712841	0.53476452	0.84021639	0.3185444	0.56956458	0.8942658	-0.0091261894	0.59798155	0.91942352	0.23010459	0.42047447	0.96882365	0.13396926	0.59899359	1.3562963	-0.051467682	0.57779867	1.3717426	0.27909312	0.52035934	1.4150614	0.11026308	0.49536348	0.98626083	-0.10122127	0.41585931	1.0504641	0.36515896	0.74561523	0.87738221	-0.080000811	0.5268404	0.79937241	0.39682462
311	1.24	0.10733087	-0.0078880901	0.11644711	0.97078357	0.054524316	0.13510058	0.037002519	0.12344379	0.039638368	0.82378056	0.052607431	0.17702635	0.071948629	0.1291577	0.1308092	0.82436759	0.09636032	0.086756313	-0.029848522	0.1503451	0.083486762	0.75663256	0.027815751	0.12904681	0.31542341	0.43858165	-0.012961813	0.76068127	0.50932945	0.24189493	0.32994523	0.42863283	0.11421739	0.73760306	0.49114413	0.11974679	0.46244604	0.82269913	-0.044844426	0.54183096	0.84160776	0.31875986	0.57728397	0.89407594	-0.0085212904	0.60526916	0.92043884	0.2303737	0.4283946	0.96898637	0.13259253	0.60576536	1.3566453	-0.051446918	0.58483498	1.3718362	0.27916898	0.52710242	1.4150889	0.11039315	0.50131457	0.98697614	-0.10099724	0.42356092	1.050213	0.36504447	0.7501114	0.87523543	-0.080418809	0.53491488	0.79915504	0.39649524
312	1.244	0.10888559	-0.0068033885	0.1158221	0.97230306	0.051487903	0.13388167	0.042251877	0.12654185	0.038296902	0.82520741	0.052296937	0.17684461	0.077589649	0.13157756	0.12937875	0.82583184	0.095983292	0.086580073	-0.023616168	0.15513215	0.082330671	0.75729744	0.028528938	0.12925166	0.32593482	0.43731987	-0.014269758	0.76833084	0.50962258	0.24159707	0.33986487	0.42695999	0.11298218	0.744968	0.4927078	0.11939993	0.47056002	0.8220879	-0.044940069	0.54887196	0.84293849	0.31897558	0.58499424	0.89398659	-0.0078845187	0.61255636	0.92150361	0.23065731	0.43567175	0.96913648	0.13138033	0.61257693	1.3570321	-0.051401112	0.59185009	1.3719942	0.27922999	0.53377279	1.4151486	0.11047799	0.50723564	0.98779984	-0.10078707	0.43132171	1.0499969	0.36498978	0.75451036	0.8730741	-0.08085365	0.5430107	0.79899488	0.39615762
313	1.248	0.11060624	-0.0055747322	0.11513231	0.97376295	0.048999179	0.13269954	0.047801064	0.12979599	0.037052825	0.82674314	0.052085782	0.17646699	0.083287994	0.13406617	0.12823712	0.82729176	0.095629385	0.086169165	-0.017035865	0.16010806	0.081248875	0.75802471	0.029128249	0.12934049	0.3366837	0.4359443	-0.015578378	0.77560981	0.50971402	0.24130426	0.35024045	0.42520013	0.11151655	0.75209927	0.49394259	0.11903638	0.47865207	0.82149035	-0.044993508	0.55588285	0.84416725	0.31917145	0.59267539	0.89398901	-0.0072308813	0.61980951	0.92259656	0.23094482	0.44231486	0.96923992	0.13035894	0.61942009	1.3574513	-0.051345768	0.59883303	1.3722115	0.27928012	0.54037116	1.4152525	0.11053067	0.51308844	0.98870449	-0.10056329	0.43915096	1.0497999	0.36504893	0.75881119	0.87090284	-0.081299166	0.55112757	0.79889184	0.39581839
314	1.252	0.11250345	-0.0041934102	0.11439438	0.97496253	0.047077283	0.13158437	0.053670393	0.13321462	0.035911768	0.8281586	0.051954948	0.17595471	0.089056303	0.13666473	0.12733614	0.82859848	0.095265186	0.085592763	-0.010090362	0.16526943	0.080229303	0.75867371	0.029586248	0.12931173	0.34763426	0.43450211	-0.016884672	0.78258606	0.50972774	0.24098153	0.36118887	0.42338887	0.10976197	0.7589719	0.49480886	0.11865645	0.48671246	0.82092612	-0.045003691	0.56285242	0.84526909	0.31935023	0.60027163	0.89407115	-0.0065860522	0.62699745	0.92370547	0.23122865	0.44866567	0.96931301	0.1295108	0.62628369	1.3579019	-0.051284976	0.60577483	1.3724926	0.27931887	0.5468974	1.4154212	0.11055685	0.51887732	0.98968252	-0.10032885	0.44701689	1.0496203	0.36521722	0.76301073	0.86872615	-0.081758929	0.55925969	0.79885613	0.39547872
315	1.256	0.11458577	-0.0026459897	0.11362755	0.9758114	0.045627193	0.1305949	0.059882024	0.13679608	0.034882967	0.82924304	0.051882307	0.17540195	0.095049529	0.13941409	0.12656431	0.82964565	0.09486824	0.084953398	-0.0027772137	0.17059225	0.079258838	0.75917133	0.029904932	0.12922796	0.3588086	0.4330477	-0.018200319	0.78928475	0.50961387	0.24063166	0.37249388	0.42151676	0.10786601	0.76560749	0.49530908	0.11822239	0.4947367	0.82041498	-0.04497195	0.56977676	0.84623413	0.31952984	0.60772741	0.8942214	-0.0059701219	0.63410321	0.92481481	0.2315136	0.45502713	0.96943061	0.12885889	0.63315585	1.3583814	-0.051213458	0.6126725	1.3728378	0.27934377	0.55335689	1.4156739	0.11056298	0.52462963	0.99072832	-0.10010116	0.45484554	1.049473	0.36541211	0.76711107	0.86654526	-0.082236476	0.5674054	0.79889333	0.39513495
316	1.26	0.11686208	-0.00092577962	0.1128423	0.97637821	0.044494086	0.12974985	0.066455936	0.14051843	0.033956481	0.82991474	0.051834699	0.17488941	0.10145212	0.14232391	0.12581225	0.83041686	0.094445068	0.084326693	0.0048935871	0.17603719	0.078326265	0.759526	0.030112589	0.12916197	0.37022741	0.43161147	-0.019530575	0.7957067	0.50930762	0.24025718	0.38378737	0.41961721	0.10604366	0.77205744	0.49549837	0.1176957	0.50272002	0.81996937	-0.044898949	0.57665739	0.84706128	0.31972656	0.61502943	0.89443541	-0.0053783573	0.64112753	0.92589677	0.23181635	0.46136652	0.9696773	0.12851469	0.64002436	1.3588816	-0.051125851	0.61952624	1.3732383	0.27935391	0.55976674	1.416022	0.11055719	0.53036851	0.9918254	-0.099892825	0.46255151	1.0493722	0.36553807	0.7711195	0.86435728	-0.082730507	0.57557368	0.79899776	0.39478166
317	1.264	0.11934323	0.00096436418	0.11203602	0.9768118	0.043561892	0.12900004	0.073409757	0.14435381	0.033106977	0.83027704	0.051757112	0.17444851	0.10834299	0.14536544	0.12504401	0.83097415	0.094021402	0.083736051	0.012911416	0.18156781	0.077433143	0.75979268	0.030252364	0.12913125	0.38186296	0.43019023	-0.020858228	0.80187434	0.50885748	0.23983944	0.39502146	0.41780681	0.10436835	0.77836758	0.49546983	0.11706699	0.51065537	0.8195951	-0.04479244	0.58349278	0.84775801	0.31994315	0.62222032	0.89472633	-0.0047751266	0.64807835	0.92691607	0.23215361	0.46771393	0.97008134	0.1285617	0.64687352	1.3593954	-0.05102336	0.62633754	1.3736862	0.27935483	0.56615694	1.4164721	0.11054689	0.53610529	0.99295636	-0.099713287	0.47010425	1.0493169	0.3655765	0.77504137	0.86216092	-0.083240989	0.58377243	0.79916041	0.39441363
318	1.268	0.12203938	0.003017317	0.11119332	0.97722548	0.042788865	0.12828158	0.080753766	0.14827587	0.03231985	0.83055657	0.051594173	0.17406823	0.11567019	0.14849018	0.12430359	0.83141434	0.093617619	0.083168237	0.021279403	0.1871661	0.07658848	0.76002377	0.030361211	0.12909647	0.39363651	0.42876291	-0.022129691	0.80783816	0.50835668	0.23936198	0.40655286	0.41616203	0.10279869	0.78455805	0.49531935	0.11634586	0.51853778	0.81929209	-0.044677928	0.59027782	0.84834559	0.32017103	0.62937241	0.89512429	-0.0041141069	0.65495648	0.92784254	0.23252866	0.47444516	0.97060064	0.12890795	0.65368383	1.3599269	-0.050912032	0.63310561	1.3741843	0.27935583	0.57255798	1.4170257	0.11053927	0.54184155	0.99411244	-0.099571974	0.47756392	1.0493025	0.36559492	0.77887655	0.85996214	-0.083772839	0.59199283	0.79937799	0.39402545
319	1.272	0.12496115	0.0052298923	0.11028913	0.97764488	0.042164677	0.12758649	0.08848733	0.15226042	0.031595085	0.8309501	0.051345612	0.17373028	0.12332837	0.15165342	0.12365542	0.83181885	0.093236269	0.082608719	0.030013008	0.19283118	0.075798872	0.76023448	0.030458247	0.1290161	0.40551754	0.42732194	-0.023296357	0.81363126	0.50785438	0.23881204	0.41859867	0.41461838	0.10136441	0.79062006	0.49511621	0.11554203	0.52636955	0.81905251	-0.044597147	0.59700922	0.84885607	0.32039839	0.63650692	0.89564482	-0.0034028132	0.66175398	0.92866252	0.23292865	0.48174597	0.97118482	0.12928168	0.66043497	1.3604898	-0.050798006	0.63982519	1.3747414	0.27935946	0.57897801	1.4176689	0.11053879	0.54757485	0.99528884	-0.099468545	0.48503585	1.0493422	0.365676	0.78262287	0.85777151	-0.084332186	0.60021538	0.79965502	0.39361165
